<svg width="64" height="64" viewBox="0 0 64 64" fill="none" xmlns="http://www.w3.org/2000/svg">
<rect width="64" height="64" fill="#283E5C"/>
<path d="M49.4602 34.5553C49.2479 33.9371 49.0355 33.3875 48.8232 32.8379L48.6109 32.357C47.9031 30.9831 47.0537 30.0213 46.629 29.6091C48.5401 23.6325 48.894 15.6636 45.5674 9H14C16.1941 13.3966 18.2467 24.1134 14 32.357C18.2467 40.6694 16.1234 51.3861 14 55.714C18.1052 55.714 44.5057 55.714 48.6109 55.714C52.0082 49.1191 51.3004 40.1885 49.4602 34.5553ZM22.7766 14.6332H38.8434C38.8434 14.6332 40.1174 17.4497 40.1174 21.2281C40.1174 23.1516 39.7635 25.2812 38.8434 27.4108H22.7766C22.7766 27.4108 24.0506 24.5943 24.0506 20.8159C24.0506 18.9611 23.7675 16.8315 22.7766 14.6332ZM41.8869 49.3252H23.5551C23.5551 49.3252 24.9707 46.1651 24.9707 41.9746C24.9707 39.845 24.6168 37.5093 23.5551 35.0362H41.8869C41.8869 35.0362 43.3024 38.1963 43.3024 42.3868C43.3732 44.5851 43.0193 46.9208 41.8869 49.3252Z" fill="#F0F6FF"/>
</svg>
