<svg width="65" height="65" viewBox="0 0 65 65" fill="none" xmlns="http://www.w3.org/2000/svg">
<path d="M32.6001 12.3H31.6001V13.3H32.6001V12.3Z"/>
<path d="M32.6001 30.9H31.6001V32.9H32.6001V30.9Z"/>
<path d="M32.6001 27H31.6001V29H32.6001V27Z"/>
<path d="M32.6001 34.8H31.6001V36.8H32.6001V34.8Z"/>
<path d="M32.6001 46.6001H31.6001V48.6001H32.6001V46.6001Z"/>
<path d="M32.6001 42.7001H31.6001V44.7001H32.6001V42.7001Z"/>
<path d="M32.6001 38.8H31.6001V40.8H32.6001V38.8Z"/>
<path d="M32.6001 15.3H31.6001V17.3H32.6001V15.3Z"/>
<path d="M32.6001 23.1001H31.6001V25.1001H32.6001V23.1001Z"/>
<path d="M32.6001 19.2001H31.6001V21.2001H32.6001V19.2001Z"/>
<path d="M32.6001 50.5H31.6001V51.5H32.6001V50.5Z"/>
<path d="M6.40015 16.9V47.3C6.40015 47.3 11.5001 44.9 18.3001 44.9C21.7001 44.9 25.6002 45.5 29.5002 47.3V16.9C29.5002 16.9 24.4002 14.5 17.5002 14.5C14.1002 14.5 10.2001 15.1 6.40015 16.9ZM25.6002 43.6H9.70016V41.9H25.6002V43.6ZM26.4001 26.2H9.50015V24.4H26.4001V26.2ZM26.4001 21.5H9.50015V19.7H26.4001V21.5Z"/>
<path d="M25.6002 41.9H9.7002V43.6H25.6002V41.9Z"/>
<path d="M46.9001 14.5C40.1001 14.5 34.9001 16.9 34.9001 16.9V47.3C38.8001 45.5 42.7002 44.9 46.1002 44.9C53.0002 44.9 58.0002 47.3 58.0002 47.3V16.9C54.2002 15.1 50.3001 14.5 46.9001 14.5ZM54.9001 41.4H38.0002V39.6H54.9001V41.4ZM54.9001 36.6H38.0002V34.8H54.9001V36.6Z"/>
</svg>
