<svg width="48" height="24" viewBox="0 0 48 24" fill="none" xmlns="http://www.w3.org/2000/svg">
<path d="M38.3977 17.986C38.1285 18.0081 37.8854 18.0822 37.6643 18.2224H37.6629C37.1697 18.541 36.5915 18.747 35.9624 18.7992C33.9503 18.9667 32.1853 17.5026 32.0205 15.529C31.8556 13.5552 33.3528 11.8177 35.3649 11.6502C36.174 11.5829 37.0818 11.8988 37.5846 12.1666C37.8895 12.3287 38.226 12.4509 38.5969 12.4193C39.4731 12.3465 40.1241 11.576 40.0513 10.6997C40.0101 10.2094 39.7561 9.78223 39.3824 9.5199C38.1546 8.75074 36.6684 8.35655 35.1012 8.48702C32.2512 8.72465 29.8751 10.708 29.0578 13.2942V8.69992C29.0578 7.66568 28.2201 6.82785 27.1858 6.82785C26.1516 6.82785 25.3137 7.66568 25.3137 8.69992V9.74789C25.2478 9.55698 25.1722 9.37018 25.0871 9.18889L25.006 9.01994C24.0583 7.17671 22.3676 6.23588 20.2908 6.23588C19.2634 6.23588 18.2704 6.51743 17.4037 7.05036C17.3927 7.05722 17.3803 7.06546 17.3666 7.0737C17.0356 6.45838 16.3873 5.83618 15.6401 5.83618C14.5578 5.83618 13.6801 6.71385 13.6801 7.79616C13.6801 7.80303 13.6801 9.44709 13.6801 11.5527V11.6584C12.6623 9.68334 10.6035 8.3332 8.22868 8.3332H8.15725C4.76883 8.33182 2.02457 11.0761 2.02319 14.4617C2.02457 17.0645 3.74557 19.4337 6.20964 20.2661C7.61198 20.74 9.18189 20.6932 10.5513 20.1247C11.3177 19.806 11.852 19.0807 11.5429 18.2278C11.2737 17.4835 10.451 17.0988 9.70794 17.368C9.70244 17.3707 9.69558 17.3735 9.69008 17.3749C8.11743 17.9737 6.25632 17.3735 5.47205 15.8503C5.42948 15.7611 5.49128 15.6539 5.61627 15.6539C7.89491 15.6539 10.1736 15.6539 12.4522 15.6525H12.4563C12.9274 15.6525 13.3546 15.4754 13.6815 15.1869V15.3531C13.6815 18.0905 13.6815 20.5215 13.6815 20.5215C13.6883 21.5393 14.5152 22.3634 15.5344 22.3634C16.5549 22.3634 17.383 21.5379 17.3886 20.5189V15.9437C18.2594 16.4821 19.2579 16.7678 20.2922 16.7678C22.3922 16.7678 24.1929 15.7363 25.0898 13.8354C25.175 13.6541 25.2505 13.4714 25.3151 13.2846V18.2842C25.3151 19.3183 26.1528 20.1562 27.1871 20.1562C28.2213 20.1562 29.0592 19.3183 29.0592 18.2842V17.221C30.0015 20.1933 33.0012 22.2288 36.2275 21.9596C37.1739 21.88 38.0597 21.6176 38.8523 21.2083C39.0487 21.108 39.2382 20.9981 39.421 20.88C39.8797 20.5696 40.1572 20.0216 40.1077 19.4311C40.0349 18.5602 39.2698 17.9134 38.3977 17.986ZM11.3781 13.0154C11.3479 13.0663 11.2737 13.15 11.113 13.15L5.69319 13.1638H5.67809C5.54074 13.1638 5.42123 13.1006 5.3608 12.9948C5.30312 12.8932 5.30586 12.7682 5.36767 12.6611C5.81269 11.8947 6.52828 11.3343 7.3826 11.0843C7.69987 10.9909 8.02814 10.9442 8.35779 10.9442C9.56785 10.9442 10.7408 11.6186 11.3479 12.6624C11.4248 12.8012 11.4344 12.9193 11.3781 13.0154ZM19.9763 13.8642C18.5588 13.8642 17.4092 12.7558 17.4092 11.3892C17.4092 10.0226 18.5588 8.91418 19.9763 8.91418C21.3938 8.91418 22.5433 10.0226 22.5433 11.3892C22.5433 12.7558 21.3938 13.8642 19.9763 13.8642Z" fill="#1C2431"/>
<path d="M26.7624 6.09171C27.934 6.33343 29.0027 5.56565 29.2279 4.4696C29.4641 3.32273 28.7774 2.24591 27.6058 2.00418C26.4836 1.77343 25.3766 2.47941 25.1404 3.62627C24.9138 4.7237 25.6403 5.86096 26.7624 6.09171Z" fill="#1C2431"/>
<path d="M42.9135 17.4341C43.9477 17.4341 44.7855 16.5963 44.7855 15.562V5.97634C44.7855 4.94209 43.9477 4.10425 42.9135 4.10425C41.8792 4.10425 41.0414 4.94209 41.0414 5.97634V15.562C41.0414 16.5949 41.8792 17.4341 42.9135 17.4341Z" fill="#1C2431"/>
<path d="M43.3364 18.2333C42.1648 17.9916 41.0963 18.7594 40.871 19.8555C40.6347 21.0023 41.3216 22.0792 42.4932 22.3208C43.6153 22.553 44.7224 21.8457 44.9586 20.6988C45.1852 19.6027 44.4587 18.4655 43.3364 18.2333Z" fill="#1C2431"/>
</svg>
