<svg width="24" height="24" viewBox="0 0 24 24" fill="none" xmlns="http://www.w3.org/2000/svg">
<path d="M12 18.88C12.0181 19.0313 12.0014 19.1847 11.9511 19.3286C11.9009 19.4724 11.8184 19.6029 11.71 19.71C11.5226 19.8963 11.2692 20.0008 11.005 20.0008C10.7408 20.0008 10.4874 19.8963 10.3 19.71L6.30001 15.71C6.18841 15.6028 6.10322 15.4711 6.05117 15.3253C5.99911 15.1795 5.9816 15.0237 6.00001 14.87V9.75L1.21001 3.62C1.04762 3.41153 0.974343 3.14726 1.0062 2.88493C1.03805 2.6226 1.17244 2.38355 1.38001 2.22C1.55595 2.07884 1.77444 2.00131 2.00001 2H16C16.2256 2.00131 16.4441 2.07884 16.62 2.22C16.8276 2.38355 16.962 2.6226 16.9938 2.88493C17.0257 3.14726 16.9524 3.41153 16.79 3.62L12 9.75V18.88V18.88ZM4.00001 4L8.00001 9.06V14.58L10 16.58V9.05L14 4H4.00001ZM13 16L18 21L23 16H13Z" fill="black"/>
</svg>
