<svg width="24" height="24" viewBox="0 0 24 24" fill="none" xmlns="http://www.w3.org/2000/svg">
<path d="M2.38999 1.72998L1.10999 2.99998L9.49999 11.37L9.96999 12H9.99999V17.87C9.95999 18.16 10.06 18.47 10.29 18.7L12.3 20.71C12.69 21.1 13.32 21.1 13.71 20.71C13.94 20.5 14.04 20.18 14 19.88V15.89L20.84 22.73L22.11 21.46L14 13.35L9.40999 8.75998L4.14999 3.49998L2.38999 1.72998ZM6.20999 2.99998L14.54 11.34L19.79 4.61998C19.9524 4.41151 20.0257 4.14724 19.9938 3.88491C19.9619 3.62258 19.8276 3.38353 19.62 3.21998C19.43 3.07998 19.22 2.99998 19 2.99998H6.20999Z" fill="black"/>
</svg>
