<svg width="65" height="65" viewBox="0 0 65 65" fill="none" xmlns="http://www.w3.org/2000/svg">
<path d="M15 52.0999V55.2C15 56.7 16.4 57.8 18.1 57.8H23.6C25.3 57.8 26.7 56.6 26.7 55.2C26.7 56.7 28.1 57.8 29.8 57.8H35.3C37 57.8 38.4 56.6 38.4 55.2C38.4 56.7 39.8 57.8 41.5 57.8H47C48.7 57.8 50.1 56.6 50.1 55.2V52.0999V51.7H15V52.0999Z" fill="black"/>
<path d="M47.2 6H41.7C40 6 38.6 7.19999 38.6 8.59999V14.8C38.6 13.3 37.2 12.2 35.5 12.2H30C28.3 12.2 26.9 13.4 26.9 14.8V21.3C26.9 19.8 25.4999 18.7 23.7999 18.7H18.2999C16.5999 18.7 15.2 19.9 15.2 21.3V47V47.3H50.5V47V8.59999C50.3 7.09999 48.9 6 47.2 6ZM22 28.5L20.6 26.2L20.1 26.5V28.4H19V23H20.1V25.5C20.2 25.4 20.2999 25.3 20.2999 25.2C20.3999 25.1 20.5 25 20.5 24.9L22 23.1H23.2999L21.4 25.5L23.2999 28.5H22ZM33.4 21.4H32.2999V18.3C32.2999 18.2 32.2999 18 32.2999 17.8C32.2999 17.6 32.2999 17.4 32.2999 17.2C32.2999 17.2 32.2 17.3 32.1 17.4C32 17.5 31.9 17.5 31.9 17.6L31.2999 18.1L30.7 17.4L32.4 16H33.2999V21.4H33.4ZM46.2 15.4H42.4V14.6L43.7999 13.2C44.0999 12.9 44.3 12.7 44.5 12.5C44.7 12.3 44.8 12.1 44.9 12C45 11.8 45 11.7 45 11.5C45 11.3 44.8999 11.1 44.7999 11C44.6999 10.9 44.4999 10.8 44.2999 10.8C44.0999 10.8 43.9 10.8 43.7 10.9C43.5 11 43.3 11.1 43.1 11.3L42.5 10.6C42.7 10.5 42.8 10.3 43 10.2C43.2 10.1 43.4 9.99999 43.6 9.89999C43.8 9.79999 44.1 9.8 44.4 9.8C44.8 9.8 45.0999 9.9 45.2999 10C45.5999 10.1 45.8 10.3 45.9 10.5C46 10.7 46.1 11 46.1 11.2C46.1 11.5 46 11.8 45.9 12C45.8 12.2 45.6 12.5 45.4 12.7C45.2 12.9 44.9 13.2 44.6 13.5L43.9 14.2V14.3H46.2999V15.4H46.2Z" fill="black"/>
</svg>
