<svg width="65" height="64" viewBox="0 0 65 64" fill="none" xmlns="http://www.w3.org/2000/svg">
<path d="M45.5002 14C37.9002 14 32.2002 16.7 32.2002 16.7C32.2002 16.7 26.5001 14 18.9001 14C15.1001 14 10.8001 14.7 6.40015 16.7V50.6C6.40015 50.6 12.1002 47.9 19.7002 47.9C23.5002 47.9 27.8002 48.6 32.2002 50.6C36.5002 48.6 40.9002 47.9 44.7002 47.9C52.3002 47.9 58.0002 50.6 58.0002 50.6V16.7C53.7002 14.7 49.4002 14 45.5002 14ZM9.90015 20.5H28.2002V22.5H9.90015V20.5ZM9.90015 25.4H28.2002V27.4H9.90015V25.4ZM9.90015 32.7V30.7H53.1002V32.7H9.90015ZM53.6002 42.9H35.3001V40.9H53.6002V42.9ZM53.6002 38H35.3001V36H53.6002V38Z" fill="black"/>
</svg>
