<svg width="64" height="65" viewBox="0 0 64 65" fill="none" xmlns="http://www.w3.org/2000/svg">
<path d="M15.1 23H12.9V25.2H15.1V23Z" fill="black"/>
<path d="M19.2 23H16.9V25.2H19.2V23Z" fill="black"/>
<path d="M38.2 35C38.4 35 38.6 34.8 38.6 34.6V26.5V25.7V24.9V15C38.6 14.8 38.4 14.6 38.2 14.6H6.4C6.2 14.6 6 14.8 6 15V34.6C6 34.8 6.2 35 6.4 35H12.5C13.6 35 14.5 35.9 14.5 37V39.5L18.4 35.6C18.8 35.2 19.3 35 19.8 35H24.4H25.2H26H38.2ZM20.9 27.4H19.1V26.9H16.8V30.5H15V26.9H12.8V27.5H11.1V21.4H15V19.4H16.8V21.4H20.8V27.4H20.9ZM23.2 30.5C23 30.1 22.5 29.3 22.1 28.8C23.8 28.4 25.2 27.8 26.3 26.9C25.3 25.7 24.6 24.3 24 22.7H22.4V21H26.9V19.2H28.7V21H33.2V22.7H31.6C31 24.3 30.2 25.7 29.2 26.8C30.4 27.7 31.8 28.3 33.5 28.7C33.1 29.1 32.5 29.9 32.3 30.4C30.5 29.9 29 29.2 27.8 28.2C26.4 29.2 24.9 30 23.2 30.5Z" fill="black"/>
<path d="M29.5 22.7999H25.9C26.3 23.8999 27 24.8999 27.7 25.6999C28.4 24.8999 29 23.8999 29.5 22.7999Z" fill="black"/>
<path d="M58.2 26.5H40.2V32.7H41L44.3 38.6C44.3 38.5 44.3 38.3 44.3 38C44.3 37.8 44.3 37.5 44.3 37.2C44.3 36.9 44.3 36.7 44.3 36.4V32.6H46V40.8H43.5L40.2 34.8C40.2 34.9 40.2 34.9 40.2 35C40.2 35.1 40.2 35.3 40.2 35.4C40.2 35.6 40.2 35.9 40.2 36.2C40.2 36.5 40.2 36.8 40.2 37V40.8H38.5V36.5C38.4 36.5 38.3 36.5 38.2 36.5H36.3V37.3H33.7V39.1H36.5V40.7H31.7V36.5H26V46.4C26 46.6 26.2 46.8 26.4 46.8H44.7C45.2 46.8 45.7 47 46.1 47.4L50 51.3V48.8C50 47.7 50.9 46.8 52 46.8H58.1C58.3 46.8 58.5 46.6 58.5 46.4V26.8C58.7 26.7 58.5 26.5 58.2 26.5ZM54 40.4C53.6 40.5 53.1 40.7 52.6 40.7C52.1 40.8 51.6 40.8 51 40.8C49.8 40.8 48.9 40.4 48.2 39.7C47.5 39 47.2 37.9 47.2 36.6C47.2 35.7 47.4 35 47.7 34.4C48 33.8 48.5 33.3 49.1 33C49.7 32.7 50.5 32.5 51.4 32.5C51.9 32.5 52.3 32.5 52.8 32.6C53.2 32.7 53.6 32.8 54 33L53.4 34.5C53.1 34.4 52.8 34.3 52.5 34.2C52.2 34.1 51.8 34.1 51.5 34.1C51 34.1 50.6 34.2 50.2 34.4C49.9 34.6 49.6 34.9 49.4 35.3C49.2 35.7 49.1 36.1 49.1 36.6C49.1 37.4 49.3 38 49.6 38.5C49.9 39 50.4 39.2 51.1 39.2C51.3 39.2 51.5 39.2 51.7 39.2C51.9 39.2 52 39.2 52.2 39.1V37.6H50.7V36H54.1V40.4H54Z" fill="black"/>
</svg>
