<svg width="65" height="65" viewBox="0 0 65 65" fill="none" xmlns="http://www.w3.org/2000/svg">
<path d="M49.3 10.7L46.1001 12.6L42.9001 14.5C42.6001 14.7 42.1001 14.5 42.1001 14.1V11.8C36.8001 12.4 32.8 16.9 32.8 22.4C32.8 22.6 32.6001 22.8 32.4001 22.8H30.6001C30.4001 22.8 30.2001 22.6 30.2001 22.4C30.2001 15.5 35.4001 9.90002 42.1001 9.20002V6.70002C42.1001 6.30002 42.5001 6.10002 42.9001 6.30002L46.1001 8.20002L49.3 10.1C49.7 10.1 49.7 10.5 49.3 10.7Z" fill="black"/>
<path d="M43.3 26.3C36.6 26.3 31.7001 28.6 31.7001 28.6C31.7001 28.6 26.7001 26.3 20.1001 26.3C16.8001 26.3 13.0001 26.9001 9.20007 28.7001V58.3001C9.20007 58.3001 14.1 56 20.8 56C24.1 56 27.9001 56.6001 31.7001 58.3001C35.5001 56.5001 39.3001 56 42.6001 56C49.3001 56 54.2001 58.3001 54.2001 58.3001V28.7001C50.4001 26.9001 46.6 26.3 43.3 26.3ZM28.2001 42.6H12.2001V40.7H28.2001V42.6ZM28.2001 38.2H12.2001V36.3H28.2001V38.2ZM28.2001 33.7001H12.2001V31.8H28.2001V33.7001ZM50.3 51.6H34.3V49.7H50.3V51.6ZM50.3 47.1H34.3V45.2H50.3V47.1ZM50.3 42.6H34.3V40.7H50.3V42.6Z" fill="black"/>
</svg>
