<svg width="65" height="64" viewBox="0 0 65 64" fill="none" xmlns="http://www.w3.org/2000/svg">
<path d="M15.7001 53.9L18.8001 52.1L21.9001 50.3C22.2001 50.1 22.6001 50.3 22.6001 50.7V52.9C27.6001 52.3 31.5001 48 31.5001 42.8C31.5001 42.6 31.7001 42.4 31.9001 42.4H33.6001C33.8001 42.4 34.0001 42.6 34.0001 42.8C34.0001 49.3 29.0001 54.7 22.6001 55.4V57.8C22.6001 58.2 22.2001 58.4 21.9001 58.2L18.8001 56.4L15.7001 54.6C15.4001 54.5 15.4001 54 15.7001 53.9Z" fill="black"/>
<path d="M43.3 6C36.9 6 32.2001 8.2 32.2001 8.2C32.2001 8.2 27.4001 6 21.1001 6C17.9001 6 14.3001 6.6 10.7001 8.3V36.5C10.7001 36.5 15.4 34.3 21.8 34.3C25 34.3 28.6001 34.9 32.2001 36.5C35.8001 34.8 39.4001 34.3 42.6001 34.3C49.0001 34.3 53.7001 36.5 53.7001 36.5V8.3C50.1001 6.6 46.5 6 43.3 6ZM28.9001 21.6H13.6001V19.8H28.9001V21.6ZM28.9001 17.4H13.6001V15.6H28.9001V17.4ZM28.9001 13.1H13.6001V11.3H28.9001V13.1ZM50.0001 30.2H34.7001V28.4H50.0001V30.2ZM50.0001 25.9H34.7001V24.1H50.0001V25.9ZM50.0001 21.7H34.7001V19.9H50.0001V21.7Z" fill="black"/>
</svg>
